<?xml version="1.0" encoding="UTF-8" standalone="no"?>
<!DOCTYPE svg PUBLIC "-//W3C//DTD SVG 1.1//EN" "http://www.w3.org/Graphics/SVG/1.1/DTD/svg11.dtd">
<svg width="100%" height="100%" viewBox="0 0 32 32" version="1.1" xmlns="http://www.w3.org/2000/svg" xmlns:xlink="http://www.w3.org/1999/xlink" xml:space="preserve" style="fill-rule:evenodd;clip-rule:evenodd;stroke-linecap:round;stroke-linejoin:round;stroke-miterlimit:1.41421;">
    <g transform="matrix(0.707107,0.707107,-0.625,0.625,18.9289,-1)">
        <path d="M12,9.131C12,8.507 11.552,8 11,8L9,8C8.448,8 8,8.507 8,9.131L8,22.869C8,23.493 8.448,24 9,24L11,24C11.552,24 12,23.493 12,22.869L12,9.131Z" style="fill:none;stroke-width:1.06px;stroke:rgb(77,77,77);"/>
        <path d="M8,12L10,12" style="fill:none;stroke-width:1.06px;stroke:rgb(77,77,77);"/>
        <path d="M8,16L10,16" style="fill:none;stroke-width:1.06px;stroke:rgb(77,77,77);"/>
        <path d="M8,20L10,20" style="fill:none;stroke-width:1.06px;stroke:rgb(77,77,77);"/>
    </g>
    <g transform="matrix(0.707107,0.707107,-0.625,0.625,18.9289,-1)">
        <path d="M8,10L9,10" style="fill:none;stroke-width:1.06px;stroke:rgb(77,77,77);"/>
    </g>
    <g transform="matrix(0.707107,0.707107,-0.625,0.625,18.9289,-1)">
        <path d="M8,14L9,14" style="fill:none;stroke-width:1.06px;stroke:rgb(77,77,77);"/>
    </g>
    <g transform="matrix(0.707107,0.707107,-0.625,0.625,18.9289,-1)">
        <path d="M8,18L9,18" style="fill:none;stroke-width:1.06px;stroke:rgb(77,77,77);"/>
    </g>
    <g transform="matrix(0.707107,0.707107,-0.625,0.625,18.9289,-1)">
        <path d="M8,22L9,22" style="fill:none;stroke-width:1.06px;stroke:rgb(77,77,77);"/>
    </g>
</svg>
